# xmcd
# 
# Track frame offsets:
#     150
#     16935
#     48572
# 
# Disc length: 856
# 
# Revision: 0
# Processed by: cddbd v1.5.2PL0 Copyright (c) Steve Scherf et al.
# Submitted via: fre:ac v1.0.31
# 
DISCID=1c035603
DTITLE=Coldjam featuring Grace - We Like To Party! (The Vengabus) [CDS 2]
DYEAR=1990
DGENRE=Pop
TTITLE0=Last Night a DJ Saved My Life (Radio Edit)
TTITLE1=Last Night a DJ Saved My Life (The Groove Mix)
TTITLE2=The Last Night (Instrumental)
EXTD=
EXTT0=
EXTT1=
EXTT2=
PLAYORDER=
